#N canvas 7 25 1433 847 12;
#X obj 261 67 loadbang;
#X msg 261 96 in 17;
#X obj 261 125 s bela_setDigital;
#X obj 261 225 r bela_digitalIn17;
#X text 258 41 Set D0 (Pd: 17) to input;
#X obj 309 427 + 1;
#X floatatom 261 486 5 0 0 0 - - - 0;
#X msg 309 485 0;
#X obj 261 398 bng 19 250 50 0 empty empty empty 0 -10 0 12 #fcfcfc #000000 #000000;
#X obj 261 427 f;
#X obj 309 456 sel 5, f 6;
#X obj 261 514 select 0 1 2 3 4, f 63;
#X msg 179 711 start;
#X obj 414 768 bng 19 250 50 0 empty empty empty 0 -10 0 12 #c6feff #000000 #000000;
#X obj 179 740 readsf~ 4 44100, f 34;
#X obj 179 769 *~ 1;
#X obj 237 769 *~ 1;
#X obj 296 769 *~ 1;
#X obj 355 769 *~ 1;
#X obj 249 682 loadbang;
#X obj 271 553 s load-2;
#X obj 261 582 s play-1;
#X obj 179 682 r play-1;
#X obj 331 312 + 1;
#X floatatom 261 341 5 0 0 0 - - - 0;
#X obj 261 283 bng 19 250 50 0 empty empty empty 0 -10 0 12 #fcfcfc #000000 #000000;
#X obj 261 312 f;
#X msg 331 283 0;
#X obj 424 797 s reset-button;
#X obj 401 254 r reset-button;
#X obj 319 682 r load-1;
#X obj 358 553 s load-3;
#X obj 446 553 s load-4;
#X obj 533 553 s load-5;
#X obj 621 553 s load-1;
#X obj 348 582 s play-2;
#X obj 436 582 s play-3;
#X obj 523 582 s play-4;
#X obj 611 582 s play-5;
#X obj 331 254 loadbang;
#X obj 665 197 tgl 19 0 empty empty empty 0 -10 0 12 #fcfcfc #000000 #000000 0 1;
#X obj 665 255 bng 19 250 50 0 empty empty empty 0 -10 0 12 #fcfcfc #000000 #000000;
#X obj 756 393 s reset-countdown;
#X obj 767 255 r reset-countdown;
#X obj 665 393 s play-call;
#X obj 697 255 loadbang;
#X obj 128 553 s pause-countdown;
#X obj 733 139 r pause-countdown;
#X msg 733 168 0;
#X obj 866 139 r resume-countdown;
#X msg 866 168 1;
#X msg 179 894 start;
#X obj 414 951 bng 19 250 50 0 empty empty empty 0 -10 0 12 #c6feff #000000 #000000;
#X obj 179 923 readsf~ 4 44100, f 34;
#X obj 179 952 *~ 1;
#X obj 237 952 *~ 1;
#X obj 296 952 *~ 1;
#X obj 355 952 *~ 1;
#X obj 424 980 s reset-button;
#X obj 179 865 r play-2;
#X obj 249 865 r load-2;
#X obj 665 168 loadbang;
#X obj 665 309 f, f 5;
#X obj 711 309 - 1;
#X obj 665 335 > 0;
#X floatatom 698 336 5 0 0 0 - - - 0;
#X obj 665 364 select 0;
#X obj 1008 567 r play-call;
#X obj 414 826 s resume-countdown;
#X obj 414 1009 s resume-countdown;
#X floatatom 1008 654 5 0 0 0 - - - 0;
#X obj 1008 596 bng 19 250 50 0 empty empty empty 0 -10 0 12 #fcfcfc #000000 #000000;
#X obj 1110 567 loadbang;
#X text 1144 596 << no. of calls;
#X msg 893 654 start;
#X text 1067 670 << select call file;
#N canvas 358 124 1004 748 urn-jb-calls 0;
#X msg 324 130 clear \, bang;
#X obj 264 179 ==, f 4;
#X obj 264 208 select 1;
#X obj 265 237 tgl 16 0 empty empty empty 0 -8 0 10 #fcfcfc #000000 #000000 0 1;
#X obj 243 261 +, f 4;
#X floatatom 243 329 5 0 0 0 - - - 0;
#X obj 243 299 %;
#X obj 243 74 inlet;
#X obj 324 74 inlet;
#X text 42 207 If new value is a repeat...;
#X text 72 258 ... then toggle offset;
#X text 74 299 constrain to urn range;
#X obj 243 352 outlet;
#X text 130 352 new value out;
#X obj 243 150 t f f f;
#N canvas 57 25 1258 847 urn-calls 0;
#X obj 197 488 t a a;
#X obj 127 418 - 1;
#X obj 76 282 select 0;
#X obj 338 363 outlet;
#X obj 197 637 outlet;
#X obj 265 51 inlet;
#X obj 76 54 inlet;
#X obj 265 105 f \$1;
#X obj 276 75 loadbang;
#X obj 170 102 b;
#X obj 197 465 random;
#N canvas 689 538 264 239 count-down 0;
#X obj 59 66 inlet;
#X obj 127 60 inlet;
#X obj 59 159 outlet;
#X text 123 37 count from?;
#X text 54 35 trigger;
#X obj 59 96 bang;
#X obj 85 131 - 1;
#X obj 59 131 f;
#X connect 0 0 5 0;
#X connect 1 0 7 1;
#X connect 5 0 7 0;
#X connect 6 0 7 1;
#X connect 7 0 6 0;
#X connect 7 0 2 0;
#X restore 76 249 pd count-down;
#X text 334 389 bang if urn empty;
#X text 172 659 urn selection;
#X obj 127 390 t a b;
#X obj 76 77 route bang seed clear;
#N canvas 549 246 251 276 gate_2 0;
#X obj 68 18 inlet;
#X obj 84 65 inlet;
#X obj 68 212 outlet;
#X obj 100 191 outlet;
#X obj 68 92 f 0;
#X obj 68 118 select 0 1;
#X obj 68 41 b;
#X connect 0 0 6 0;
#X connect 1 0 4 1;
#X connect 4 0 5 0;
#X connect 5 0 2 0;
#X connect 5 1 3 0;
#X connect 6 0 4 0;
#X restore 76 206 pd gate_2;
#N canvas 589 293 450 300 init-urn-table 0;
#N canvas 0 25 450 300 count 0;
#X obj 158 193 + 1;
#X obj 122 158 until;
#X obj 122 194 f;
#X obj 122 101 inlet;
#X msg 167 157 0;
#X obj 122 120 t a b;
#X obj 122 224 outlet;
#X connect 0 0 2 1;
#X connect 1 0 2 0;
#X connect 2 0 0 0;
#X connect 2 0 6 0;
#X connect 3 0 5 0;
#X connect 4 0 2 1;
#X connect 5 0 1 0;
#X connect 5 1 4 0;
#X restore 117 197 pd count;
#X obj 117 218 t a a;
#X msg 147 148 resize \$1;
#X obj 117 82 t a a;
#X obj 117 49 inlet;
#X obj 147 128 change;
#X obj 147 105 int;
#X obj 147 173 s \$0-urn-calls;
#X obj 117 249 tabwrite \$0-urn-calls;
#X connect 0 0 1 0;
#X connect 1 0 8 0;
#X connect 1 1 8 1;
#X connect 2 0 7 0;
#X connect 3 0 0 0;
#X connect 3 1 6 0;
#X connect 4 0 3 0;
#X connect 5 0 2 0;
#X connect 6 0 5 0;
#X restore 323 149 pd init-urn-table;
#X obj 265 125 t b a a a;
#X obj 76 306 t b b;
#X msg 134 181 0;
#X msg 149 204 1;
#X msg 578 400 seed \$1;
#X obj 644 169 loadbang;
#X obj 644 227 snapshot~;
#X obj 588 169 adc~ 1;
#X obj 588 198 hip~ 5;
#X obj 644 256 abs;
#X obj 644 285 * 1e+07;
#X obj 644 314 % 1000;
#X text 562 143 seed random from analog;
#X obj 644 198 delay 200 1 msec;
#X obj 324 171 table \$0-urn-calls \$1;
#X obj 127 531 tabread \$0-urn-calls;
#X obj 127 559 tabwrite \$0-urn-calls;
#X obj 197 609 tabread \$0-urn-calls;
#X connect 0 0 35 0;
#X connect 0 1 34 1;
#X connect 1 0 10 1;
#X connect 1 0 33 0;
#X connect 2 0 19 0;
#X connect 2 1 14 0;
#X connect 5 0 7 0;
#X connect 6 0 15 0;
#X connect 7 0 18 0;
#X connect 8 0 7 0;
#X connect 9 0 7 0;
#X connect 10 0 0 0;
#X connect 11 0 2 0;
#X connect 14 0 1 0;
#X connect 14 1 10 0;
#X connect 15 0 16 0;
#X connect 15 2 9 0;
#X connect 16 0 11 0;
#X connect 16 1 3 0;
#X connect 18 0 20 0;
#X connect 18 1 11 1;
#X connect 18 2 10 1;
#X connect 18 3 17 0;
#X connect 19 0 3 0;
#X connect 19 1 21 0;
#X connect 20 0 16 1;
#X connect 21 0 16 1;
#X connect 22 0 10 0;
#X connect 23 0 31 0;
#X connect 24 0 27 0;
#X connect 25 0 26 0;
#X connect 26 0 24 0;
#X connect 27 0 28 0;
#X connect 28 0 29 0;
#X connect 29 0 22 0;
#X connect 31 0 24 0;
#X connect 33 0 34 0;
#X connect 35 0 4 0;
#X restore 243 103 pd urn-calls;
#X text 311 54 urn range;
#X text 201 74 bang;
#X connect 0 0 15 0;
#X connect 1 0 2 0;
#X connect 2 0 3 0;
#X connect 3 0 4 1;
#X connect 4 0 6 0;
#X connect 5 0 12 0;
#X connect 6 0 5 0;
#X connect 7 0 15 0;
#X connect 8 0 15 1;
#X connect 8 0 6 1;
#X connect 14 0 4 0;
#X connect 14 1 1 1;
#X connect 14 2 1 0;
#X connect 15 0 14 0;
#X connect 15 1 0 0;
#X restore 1008 625 pd urn-jb-calls;
#X obj 893 813 readsf~ 4 44100, f 34;
#X obj 893 842 *~ 1;
#X obj 951 842 *~ 1;
#X obj 1010 842 *~ 1;
#X obj 1069 842 *~ 1;
#X obj 893 871 s~ c-o1;
#X obj 951 871 s~ c-o2;
#X obj 1010 871 s~ c-o3;
#X obj 1069 871 s~ c-o4;
#X text 781 624 delay play >>;
#X text 258 198 Button input -> Play next track;
#X obj 261 254 select 1;
#X obj 261 369 select 1;
#X text 363 456 << no. of tracks;
#X text 117 427 counter-↑ (looping);
#X text 745 311 counter-↓ (looping);
#X msg 179 1077 start;
#X obj 414 1134 bng 19 250 50 0 empty empty empty 0 -10 0 12 #c6feff #000000 #000000;
#X obj 179 1106 readsf~ 4 44100, f 34;
#X obj 179 1135 *~ 1;
#X obj 237 1135 *~ 1;
#X obj 296 1135 *~ 1;
#X obj 355 1135 *~ 1;
#X obj 249 1048 loadbang;
#X obj 424 1163 s reset-button;
#X msg 179 1260 start;
#X obj 414 1317 bng 19 250 50 0 empty empty empty 0 -10 0 12 #c6feff #000000 #000000;
#X obj 179 1289 readsf~ 4 44100, f 34;
#X obj 179 1318 *~ 1;
#X obj 237 1318 *~ 1;
#X obj 296 1318 *~ 1;
#X obj 355 1318 *~ 1;
#X obj 424 1346 s reset-button;
#X obj 414 1192 s resume-countdown;
#X obj 414 1375 s resume-countdown;
#X obj 179 1048 r play-3;
#X obj 319 1048 r load-3;
#X obj 296 1162 s~ t3o3;
#X obj 355 1162 s~ t3o4;
#X obj 237 1162 s~ t3o2;
#X obj 179 1162 s~ t3o1;
#X obj 296 1345 s~ t4o3;
#X obj 355 1345 s~ t4o4;
#X obj 237 1345 s~ t4o2;
#X obj 179 1345 s~ t4o1;
#X obj 179 979 s~ t2o1;
#X obj 237 979 s~ t2o2;
#X obj 296 979 s~ t2o3;
#X obj 355 979 s~ t2o4;
#X obj 179 796 s~ t1o1;
#X obj 237 796 s~ t1o2;
#X obj 296 796 s~ t1o3;
#X obj 355 796 s~ t1o4;
#X obj 179 1231 r play-4;
#X obj 249 1231 r load-4;
#X msg 179 1453 start;
#X obj 414 1510 bng 19 250 50 0 empty empty empty 0 -10 0 12 #c6feff #000000 #000000;
#X obj 179 1482 readsf~ 4 44100, f 34;
#X obj 179 1511 *~ 1;
#X obj 237 1511 *~ 1;
#X obj 296 1511 *~ 1;
#X obj 355 1511 *~ 1;
#X obj 424 1539 s reset-button;
#X obj 414 1568 s resume-countdown;
#X text 102 1481 TRACK 5;
#X obj 179 1424 r play-5;
#X obj 249 1424 r load-5;
#X obj 179 1538 s~ t5o1;
#X obj 237 1538 s~ t5o2;
#X obj 296 1538 s~ t5o3;
#X obj 355 1538 s~ t5o4;
#X text 102 1105 TRACK 3;
#X text 102 1288 TRACK 4;
#X text 102 922 TRACK 2;
#X text 102 739 TRACK 1;
#X text 26 554 block calls >>;
#X text 166 254 only press >>;
#X text 117 370 block button spam >>;
#X text 661 103 Call countdown;
#X obj 1008 711 makefilename call_%02d.wav;
#X obj 1008 740 list prepend open;
#X obj 1008 769 list trim;
#X obj 1008 682 + 1;
#X text 1134 769 << construct message;
#X msg 249 1260 open stemmer.wav;
#X obj 838 1526 dac~ 1 2 3 4, f 72;
#X obj 1220 1227 r~ c-o1;
#X obj 1278 1227 r~ c-o2;
#X obj 1337 1227 r~ c-o3;
#X obj 1396 1227 r~ c-o4;
#X obj 811 1302 r~ t3o1;
#X obj 869 1302 r~ t3o2;
#X obj 928 1302 r~ t3o3;
#X obj 987 1302 r~ t3o4;
#X obj 789 1206 r~ t1o1;
#X obj 847 1206 r~ t1o2;
#X obj 906 1206 r~ t1o3;
#X obj 965 1206 r~ t1o4;
#X obj 795 1263 r~ t4o1;
#X obj 853 1263 r~ t4o2;
#X obj 912 1263 r~ t4o3;
#X obj 971 1263 r~ t4o4;
#X obj 835 1381 r~ t5o1;
#X obj 893 1381 r~ t5o2;
#X obj 952 1381 r~ t5o3;
#X obj 1011 1381 r~ t5o4;
#X obj 1003 1337 r~ t2o4;
#X obj 944 1337 r~ t2o3;
#X obj 885 1337 r~ t2o2;
#X obj 827 1337 r~ t2o1;
#X msg 249 711 open udvikling.wav;
#X msg 249 894 open arbejde.wav;
#X msg 249 1077 open maskiner_01.wav;
#X msg 249 1453 open maskiner_02.wav;
#X msg 1110 596 15;
#X obj 893 625 delay 1000;
#X obj 665 226 metro 1 1 min;
#X text 726 283 << pause between calls (min.);
#X floatatom 923 707 5 0 0 0 - - - 0;
#X msg 697 284 30;
#X connect 0 0 1 0;
#X connect 1 0 2 0;
#X connect 3 0 88 0;
#X connect 5 0 9 1;
#X connect 6 0 11 0;
#X connect 7 0 9 0;
#X connect 8 0 9 0;
#X connect 9 0 5 0;
#X connect 9 0 6 0;
#X connect 9 0 10 0;
#X connect 10 0 7 0;
#X connect 11 0 20 0;
#X connect 11 0 21 0;
#X connect 11 0 46 0;
#X connect 11 1 31 0;
#X connect 11 1 35 0;
#X connect 11 1 46 0;
#X connect 11 2 32 0;
#X connect 11 2 36 0;
#X connect 11 2 46 0;
#X connect 11 3 33 0;
#X connect 11 3 37 0;
#X connect 11 3 46 0;
#X connect 11 4 34 0;
#X connect 11 4 38 0;
#X connect 11 4 46 0;
#X connect 12 0 14 0;
#X connect 13 0 28 0;
#X connect 13 0 68 0;
#X connect 14 0 15 0;
#X connect 14 1 16 0;
#X connect 14 2 17 0;
#X connect 14 3 18 0;
#X connect 14 4 13 0;
#X connect 15 0 126 0;
#X connect 16 0 127 0;
#X connect 17 0 128 0;
#X connect 18 0 129 0;
#X connect 19 0 187 0;
#X connect 22 0 12 0;
#X connect 23 0 26 1;
#X connect 24 0 89 0;
#X connect 25 0 26 0;
#X connect 26 0 23 0;
#X connect 26 0 24 0;
#X connect 27 0 26 0;
#X connect 29 0 27 0;
#X connect 30 0 187 0;
#X connect 39 0 27 0;
#X connect 40 0 193 0;
#X connect 41 0 62 0;
#X connect 43 0 196 0;
#X connect 45 0 196 0;
#X connect 47 0 48 0;
#X connect 48 0 40 0;
#X connect 49 0 50 0;
#X connect 50 0 40 0;
#X connect 51 0 53 0;
#X connect 52 0 58 0;
#X connect 52 0 69 0;
#X connect 53 0 54 0;
#X connect 53 1 55 0;
#X connect 53 2 56 0;
#X connect 53 3 57 0;
#X connect 53 4 52 0;
#X connect 54 0 122 0;
#X connect 55 0 123 0;
#X connect 56 0 124 0;
#X connect 57 0 125 0;
#X connect 59 0 51 0;
#X connect 60 0 188 0;
#X connect 61 0 40 0;
#X connect 62 0 63 0;
#X connect 62 0 64 0;
#X connect 62 0 65 0;
#X connect 63 0 62 1;
#X connect 64 0 66 0;
#X connect 66 0 42 0;
#X connect 66 0 44 0;
#X connect 67 0 71 0;
#X connect 70 0 159 0;
#X connect 70 0 195 0;
#X connect 71 0 76 0;
#X connect 71 0 192 0;
#X connect 72 0 191 0;
#X connect 74 0 77 0;
#X connect 76 0 70 0;
#X connect 77 0 78 0;
#X connect 77 1 79 0;
#X connect 77 2 80 0;
#X connect 77 3 81 0;
#X connect 78 0 82 0;
#X connect 79 0 83 0;
#X connect 80 0 84 0;
#X connect 81 0 85 0;
#X connect 88 0 25 0;
#X connect 89 0 8 0;
#X connect 93 0 95 0;
#X connect 94 0 101 0;
#X connect 94 0 110 0;
#X connect 95 0 96 0;
#X connect 95 1 97 0;
#X connect 95 2 98 0;
#X connect 95 3 99 0;
#X connect 95 4 94 0;
#X connect 96 0 117 0;
#X connect 97 0 116 0;
#X connect 98 0 114 0;
#X connect 99 0 115 0;
#X connect 100 0 189 0;
#X connect 102 0 104 0;
#X connect 103 0 109 0;
#X connect 103 0 111 0;
#X connect 104 0 105 0;
#X connect 104 1 106 0;
#X connect 104 2 107 0;
#X connect 104 3 108 0;
#X connect 104 4 103 0;
#X connect 105 0 121 0;
#X connect 106 0 120 0;
#X connect 107 0 118 0;
#X connect 108 0 119 0;
#X connect 112 0 93 0;
#X connect 113 0 189 0;
#X connect 130 0 102 0;
#X connect 131 0 161 0;
#X connect 132 0 134 0;
#X connect 133 0 139 0;
#X connect 133 0 140 0;
#X connect 134 0 135 0;
#X connect 134 1 136 0;
#X connect 134 2 137 0;
#X connect 134 3 138 0;
#X connect 134 4 133 0;
#X connect 135 0 144 0;
#X connect 136 0 145 0;
#X connect 137 0 146 0;
#X connect 138 0 147 0;
#X connect 142 0 132 0;
#X connect 143 0 190 0;
#X connect 156 0 157 0;
#X connect 157 0 158 0;
#X connect 158 0 77 0;
#X connect 159 0 156 0;
#X connect 161 0 104 0;
#X connect 163 0 162 0;
#X connect 164 0 162 1;
#X connect 165 0 162 2;
#X connect 166 0 162 3;
#X connect 167 0 162 0;
#X connect 168 0 162 1;
#X connect 169 0 162 2;
#X connect 170 0 162 3;
#X connect 171 0 162 0;
#X connect 172 0 162 1;
#X connect 173 0 162 2;
#X connect 174 0 162 3;
#X connect 175 0 162 0;
#X connect 176 0 162 1;
#X connect 177 0 162 2;
#X connect 178 0 162 3;
#X connect 179 0 162 0;
#X connect 180 0 162 1;
#X connect 181 0 162 2;
#X connect 182 0 162 3;
#X connect 183 0 162 3;
#X connect 184 0 162 2;
#X connect 185 0 162 1;
#X connect 186 0 162 0;
#X connect 187 0 14 0;
#X connect 188 0 53 0;
#X connect 189 0 95 0;
#X connect 190 0 134 0;
#X connect 191 0 76 1;
#X connect 192 0 74 0;
#X connect 193 0 41 0;
#X connect 196 0 62 1;
